/* XPM */
static const char * FxEngineEditor_xpm[] = {
"128 128 54 1",
" 	c None",
".	c #263D59",
"+	c #5F82A9",
"@	c #7FA9D7",
"#	c #5F81A9",
"$	c #6285AE",
"%	c #7299C5",
"&	c #354F6E",
"*	c #385373",
"=	c #57799F",
"-	c #36506F",
";	c #6E94BF",
">	c #375171",
",	c #49688B",
"'	c #436183",
")	c #527398",
"!	c #4F6F93",
"~	c #517195",
"{	c #779FCB",
"]	c #7097C2",
"^	c #6489B1",
"/	c #466587",
"(	c #6E94BE",
"_	c #78A1CE",
":	c #739BC7",
"<	c #7198C3",
"[	c #749BC7",
"}	c #779FCC",
"|	c #7CA5D2",
"1	c #7299C4",
"2	c #7DA6D4",
"3	c #729AC5",
"4	c #7BA4D1",
"5	c #3B5676",
"6	c #7AA2CF",
"7	c #385372",
"8	c #739BC6",
"9	c #2A415E",
"0	c #446284",
"a	c #6B91BB",
"b	c #77A0CC",
"c	c #597BA1",
"d	c #749CC8",
"e	c #7198C4",
"f	c #49678A",
"g	c #6A90B9",
"h	c #5D80A8",
"i	c #6D93BD",
"j	c #2A425F",
"k	c #7EA7D5",
"l	c #688DB6",
"m	c #456284",
"n	c #5B7DA4",
"o	c #57789E",
"                                                                                                                                ",
"                                                                                                                                ",
"                                                                                                                                ",
"                                                                                                                                ",
"                                                                                                                                ",
"                                                                                                                                ",
"                                                                                                                                ",
"                                                                                                                                ",
"                                                                                                                                ",
"                                                                                                                                ",
"                                                                                                                                ",
"                                                                                                                                ",
"                                                                                                                                ",
"                                                                                                                                ",
"                                                                                                                                ",
"                                                    ..................................................                          ",
"                                                   ....................................................                         ",
"                                                  ......................................................                        ",
"                                                 ........................................................                       ",
"                                                 ....+@@@@@@@@@@@@@@@@@@@@@@@@@@@@@@@@@@@@@@@@@@@@@@+....                       ",
"                                                 ....@@@@@@@@@@@@@@@@@@@@@@@@@@@@@@@@@@@@@@@@@@@@@@@@....                       ",
"                                                 ....@@@@@@@@@@@@@@@@@@@@@@@@@@@@@@@@@@@@@@@@@@@@@@@@....                       ",
"                                                 ....@@@@@@@@@@@@@@@@@@@@@@@@@@@@@@@@@@@@@@@@@@@@@@@@....                       ",
"                                                 ....@@@@@@@@@@@@@@@@@@@@@@@@@@@@@@@@@@@@@@@@@@@@@@@@....                       ",
"                                                 ....@@@@@@@@@@@@@@@@@@@@@@@@@@@@@@@@@@@@@@@@@@@@@@@@....                       ",
"                                                 ....@@@@@@@@@@@@@@@@@@@@@@@@@@@@@@@@@@@@@@@@@@@@@@@@....                       ",
"                                                 ....@@@@@@@@@@@@@@@@@@@@@@@@@@@@@@@@@@@@@@@@@@@@@@@@....                       ",
"                                                 ....@@@@@@@@@@@@@@@@@@@@@@@@@@@@@@@@@@@@@@@@@@@@@@@@....                       ",
"                                                 ....@@@@@@@@@@@@@@@@@@@@@@@@@@@@@@@@@@@@@@@@@@@@@@@@....                       ",
"                                                 ....@@@@@@@@@@@@@@@@@@@@@@@@@@@@@@@@@@@@@@@@@@@@@@@@....                       ",
"                                                 ....@@@@@@@@@@@@@@@@@@@@@@@@@@@@@@@@@@@@@@@@@@@@@@@@....                       ",
"                                                 ....@@@@@@@@@@@@@@@@@@@@@@@@@@@@@@@@@@@@@@@@@@@@@@@@....                       ",
"                                                 ....@@@@@@@@@@@@@@@@@@@@@@@@@@@@@@@@@@@@@@@@@@@@@@@@....                       ",
"                                                 ....@@@@@@@@@@@@@@@@@@@@@@@@@@@@@@@@@@@@@@@@@@@@@@@@....                       ",
"                                                 ....@@@@@@@@@@@@@@@@@@@@@@@@@@@@@@@@@@@@@@@@@@@@@@@@....                       ",
"                                                 ....@@@@@@@@@@@@@@@@@@@@@@@@@@@@@@@@@@@@@@@@@@@@@@@@....                       ",
"                                                 ....@@@@@@@@@@@@@@@@@@@@@@@@@@@@@@@@@@@@@@@@@@@@@@@@....                       ",
"                                                 ....@@@@@@@@@@@@@@@@@@@@@@@@@@@@@@@@@@@@@@@@@@@@@@@@....                       ",
"                                                 ....@@@@@@@@@@@@@@@@@@@@@@@@@@@@@@@@@@@@@@@@@@@@@@@@....                       ",
"                                                 ....@@@@@@@@@@@@@@@@@@@@@@@@@@@@@@@@@@@@@@@@@@@@@@@@....                       ",
"                                                 ....@@@@@@@@@@@@@@@@@@@@@@@@@@@@@@@@@@@@@@@@@@@@@@@@....                       ",
"                                                 ....@@@@@@@@@@@@@@@@@@@@@@@@@@@@@@@@@@@@@@@@@@@@@@@@....                       ",
"                                                 ....@@@@@@@@@@@@@@@@@@@@@@@@@@@@@@@@@@@@@@@@@@@@@@@@....                       ",
"                                                 ....@@@@@@@@@@@@@@@@@@@@@@@@@@@@@@@@@@@@@@@@@@@@@@@@....                       ",
"                                                 ....##################$%@@@@@@@@@@@@@@@@@@@@@@@@@@@@....                       ",
"           ..........................................&&&&&&&&&&&&&&&&&&&&*$@@@@@@@@@@@@@@@@@@@@@@@@@@....                       ",
"         ............................................&&&&&&&&&&&&&&&&&&&&&&=@@@@@@@@@@@@@@@@@@@@@@@@@....                       ",
"         ............................................&&&&&&&&&&&&&&&&&&&&&&-;@@@@@@@@@@@@@@@@@@@@@@@@....                       ",
"        ....>,,,,,,,,,,,,,,,,,,,,,,,,,,,,,,,,,,,,''''))))))))))))))))))!&&&&~@@@@@@@@@@@@@@@@@@@@@@@@....                       ",
"        ....{@@@@@@@@@@@@@@@@@@@@@@@@@@@@@@@@@@@@]]]]@@@@@@@@@@@@@@@@@@@^&&&/@@@@@@@@@@@@@@@@@@@@@@@@....                       ",
"        ....@@@@@@@@@@@@@@@@@@@@@@@@@@@@@@@@@@@@@]]]]@@@@@@@@@@@@@@@@@@@(&&&'@@@@@@@@@@@@@@@@@@@@@@@@....                       ",
"        ....@@@@@@@@@@@@@@@@@@@@@@@@@@@@@@@@@@@@@]]]]@@@@@@@@@@@@@@@@@@@(&&&'@@@@@@@@@@@@@@@@@@@@@@@@....                       ",
"        ....@@@@@@@@@@@@@@@@@@@@@@@@@@@@@@@@@@@@@]]]]@@@@@@@@@@@@@@@@@@@(&&&'@@@@@@@@@@@@@@@@@@@@@@@@....                       ",
"        ....@@@@@@@@@@@@@@@@@@@@@@@@@@@@@@@@@@@@@]]]]@@@@@@@@@@@@@@@@@@@(&&&'@@@@@@@@@@@@@@@@@@@@@@@@....                       ",
"        ....@@@@@@@@@@@@@@@@@@@@@@@@@@@@@@@@@@@@@]]]]@@@@@@@@@@@@@@@@@@@(&&&'@@@@@@@@@@@@@@@@@@@@@@@@....                       ",
"        ....@@@@@@@@@@@@@@@@@@@@@@@@@@@@@@@@@@@@@]]]]@@@@@@@@@@@@@@@@@@@(&&&'@@@@@@@@@@@@@@@@@@@@@@@@....                       ",
"        ....@@@@@@@@@@@@@@@@@@@@@@@@@@@@@@@@@@@@@]]]]@@@@@@@@@@@@@@@@@@@(&&&'@@@@@@@@@@@@@@@@@@@@@@@@....                       ",
"        ....@@@@@@@@@@@@@@@@@@@@@@@@@@@@@@@@@@@@@]]]]@@@@@@@@@@@@@@@@@@@(&&&'@@@@@@@@@@@@@@@@_:<]]]]]..................         ",
"        ....@@@@@@@@@@@@@@@@@@@@@@@@@@@@@@@@@@@@@]]]]@@@@@@@@@@@@@@@@@@@(&&&'@@@@@@@@@@@@@@@[]]]]]]]]....................       ",
"        ....@@@@@@@@@@@@@@@@@@@@@@@@@@@@@@@@@@@@@]]]]@@@@@@@@@@@@@@@@@@@(&&&'@@@@@@@@@@@@@@}]]]]]]]]]....................       ",
"        ....@@@@@@@@@@@@@@@@@@@@@@@@@@@@@@@@@@@@@]]]]@@@@@@@@@@@@@@@@@@@(&&&'@@@@@@@@@@@@@@<]]]]]]]]].....................      ",
"        ....@@@@@@@@@@@@@@@@@@@@@@@@@@@@@@@@@@@@@]]]]@@@@@@@@@@@@@@@@@@@(&&&'@@@@@@@@@@@@@|]]]12@@@@@&&&&@@@@@@@@@@@@3-...      ",
"        ....@@@@@@@@@@@@@@@@@@@@@@@@@@@@@@@@@@@@@]]]]@@@@@@@@@@@@@@@@@@@(&&&'@@@@@@@@@@@@@4]]][@@@@@@&&&&@@@@@@@@@@@@@5...      ",
"        ....@@@@@@@@@@@@@@@@@@@@@@@@@@@@@@@@@@@@@]]]]@@@@@@@@@@@@@@@@@@@(&&&'@@@@@@@@@@@@@4]]][@@@@@@&&&&@@@@@@@@@@@@@5...      ",
"        ....@@@@@@@@@@@@@@@@@@@@@@@@@@@@@@@@@@@@@]]]]@@@@@@@@@@@@@@@@@@@(&&&'@@@@@@@@@@@@@4]]][@@@@@@&&&&@@@@@@@@@@@@@5...      ",
"        ....@@@@@@@@@@@@@@@@@@@@@@@@@@@@@@@@@@@@@]]]]@@@@@@@@@@@@@@@@@@@(&&&'@@@@@@@@@@@@@4]]][@@@@@@&&&&@@@@@@@@@@@@@5...      ",
"        ....@@@@@@@@@@@@@@@@@@@@@@@@@@@@@@@@@@@@@<]]]6@@@@@@@@@@@@@@@@@@(&&&'@@@@@@@@@@@@@4]]][@@@@@^&&&7@@@@@@@@@@@@@5...      ",
"        ....@@@@@@@@@@@@@@@@@@@@@@@@@@@@@@@@@@@@@8]]]]]]]]]]]]]]]]]]]]]]+.....................9&&&&&&&&&0@@@@@@@@@@@@@5...      ",
"        ....@@@@@@@@@@@@@@@@@@@@@@@@@@@@@@@@@@@@@4]]]]]]]]]]]]]]]]]]]]]]+.....................9&&&&&&&&-a@@@@@@@@@@@@@5...      ",
"        ....@@@@@@@@@@@@@@@@@@@@@@@@@@@@@@@@@@@@@@b]]]]]]]]]]]]]]]]]]]]]+.....................9&&&&&&&&c@@@@@@@@@@@@@@5...      ",
"        ....@@@@@@@@@@@@@@@@@@@@@@@@@@@@@@@@@@@@@@@4de]]]]]]]]]]]]]]]]]]+.....................9&&&&&5fg@@@@@@@@@@@@@@@5...      ",
"        ....@@@@@@@@@@@@@@@@@@@@@@@@@@@@@@@@@@@@@@@@@@@@@@@@@@@@@@@@@@@@g....              ...5@@@@@@@@@@@@@@@@@@@@@@@5...      ",
"        ....@@@@@@@@@@@@@@@@@@@@@@@@@@@@@@@@@@@@@@@@@@@@@@@@@@@@@@@@@@@@g....              ...5@@@@@@@@@@@@@@@@@@@@@@@5...      ",
"        ....@@@@@@@@@@@@@@@@@@@@@@@@@@@@@@@@@@@@@@@@@@@@@@@@@@@@@@@@@@@@g....              ...5@@@@@@@@@@@@@@@@@@@@@@@5...      ",
"        ....@@@@@@@@@@@@@@@@@@@@@@@@@@@@@@@@@@@@@@@@@@@@@@@@@@@@@@@@@@@@g....              ...5@@@@@@@@@@@@@@@@@@@@@@@5...      ",
"        ....@@@@@@@@@@@@@@@@@@@@@@@@@@@@@@@@@@@@@@@@@@@@@@@@@@@@@@@@@@@@g....              ...5@@@@@@@@@@@@@@@@@@@@@@@5...      ",
"        ....@@@@@@@@@@@@@@@@@@@@@@@@@@@@@@@@@@@@@@@@@@@@@@@@@@@@@@@@@@@@g....              ...5@@@@@@@@@@@@@@@@@@@@@@@5...      ",
"        ....@@@@@@@@@@@@@@@@@@@@@@@@@@@@@@@@@@@@@@@@@@@@@@@@@@@@@@@@@@@@g....              ...5@@@@@@@@@@@@@@@@@@@@@@@5...      ",
"        ....@@@@@@@@@@@@@@@@@@@@@@@@@@@@@@@@@@@@@@@@@@@@@@@@@@@@@@@@@@@@g....              ...5@@@@@@@@@@@@@@@@@@@@@@@5...      ",
"        ....@@@@@@@@@@@@@@@@@@@@@@@@@@@@@@@@@@@@@@@@@@@@@@@@@@@@@@@@@@@@g....              ...5@@@@@@@@@@@@@@@@@@@@@@@5...      ",
"        ....@@@@@@@@@@@@@@@@@@@@@@@@@@@@@@@@@@@@@@@@@@@@@@@@@@@@@@@@@@@@g....              ...5@@@@@@@@@@@@@@@@@@@@@@@5...      ",
"        ....@@@@@@@@@@@@@@@@@@@@@@@@@@@@@@@@@@@@@@@@@@@@@@@@@@@@@@@@@@@@g....              ...5@@@@@@@@@@@@@@@@@@@@@@@5...      ",
"        ....@@@@@@@@@@@@@@@@@@@@@@@@@@@@@@@@@@@@@@@@@@@@@@@@@@@@@@@@@@@@g....              ...5@@@@@@@@@@@@@@@@@@@@@@@5...      ",
"        ....@@@@@@@@@@@@@@@@@@@@@@@@@@@@@@@@@@@@@@@@@@@@@@@@@@@@@@@@@@@@g....              ....hiiiiiiiiiiiiiiiiiiiiihj...      ",
"        ....@@@@@@@@@@@@@@@@@@@@@@@@@@@@@@@@@@@@@@@@@@@@@@@@@@@@@@@@@@@@g....              ...............................      ",
"        ....@@@@@@@@@@@@@@@@@@@@@@@@@@@@@@@@@@@@@@@@@@@@@@@@@@@@@@@@@@@@g....               .............................       ",
"        ....@@@@@@@@@@@@@@@@@@@@@@@@@@@@@@@@@@@@@@@@@@@@@@@@@@@@@@@@@@@@g....                ...........................        ",
"        ....@@@@@@@@@@@@@@@@@@@@@@@@@@@@@@@@@@@@@@@@@@@@@@@@@@@@@@@@@@@@g....                  .......................          ",
"        ....@@@@@@@@@@@@@@@@@@@@@@@@@@@@@@@@@@@@@@@@@@@@@@@@@@@@@@@@@@@@g....                                                   ",
"        ....@@@@@@@@@@@@@@@@@@@@@@@@@@@@@@@@@@@@@@@@@@@@@@@@@@@@@@@@@@@@g....                                                   ",
"        ....@@@@@@@@@@@@@@@@@@@@@@@@@@@@@@@@@@@@@@@@@@@@@@@@@@@@@@@@@@@@g....                                                   ",
"        ....@@@@@@@@@@@@@@@@@@@@@@@@@@@@@@@@@@@@@@@@@@@@@@@@@@@@@@@@@@@@g....                                                   ",
"        ....@@@@@@@@@@@@@@@@@@@@@@@@@@@@@@@@@@@@@@@@@@@@@@@@@@@@@@@@@@@@g....                                                   ",
"        ....@@@@@@@@@@@@@@@@@@@@@@@@@@@@@@@@@@@@@@@@@@@@@@@@@@@@@@@@@@@@g....                                                   ",
"        ....@@@@@@@@@@@@@@@@@@@@@@@@@@@@@@@@@@@@@@@@@@@@@@@@@@@@@@@@@@@@g....                                                   ",
"        ....@@@@@@@@@@@@@@@@@@@@@@@@@@@@@@@@@@@@@@@@@@@@@@@@@@@@@@@@@@@@g....                                                   ",
"        ....@@@@@@@@@@@@@@@@@@@@@@@@@@@@@@@@@@@@@@@@@@@@@@@@@@@@@@@@@@@@g....                                                   ",
"        ....@@@@@@@@@@@@@@@@@@@@@@@@@@@@@@@@@@@@@@@@@@@@@@@@@@@@@@@@@@@@g....                                                   ",
"        ....@@@@@@@@@@@@@@@@@@@@@@@@@@@@@@@@@@@@@@@@@@@@@@@@@@@@@@@@@@@@g....                                                   ",
"        ....@@@@@@@@@@@@@@@@@@@@@@@@@@@@@@@@@@@@@@@@@@@@@@@@@@@@@@@@@@@@g....                                                   ",
"        ....@@@@@@@@@@@@@@@@@@@@@@@@@@@@@@@@@@@@@@@@@@@@@@@@@@@@@@@@@@@@g....                                                   ",
"        ....@@@@@@@@@@@@@@@@@@@@@@@@@@@@@@@@@@@@@@@@@@@@@@@@@@@@@@@@@@@@g....                                                   ",
"        ....@@@@@@@@@@@@@@@@@@@@@@@@@@@@@@@@@@@@@@@@@@@@@@@@@@@@@@@@@@@@g....                                                   ",
"        ....@@@@@@@@@@@@@@@@@@@@@@@@@@@@@@@@@@@@@@@@@@@@@@@@@@@@@@@@@@@@g....                                                   ",
"        ....@@@@@@@@@@@@@@@@@@@@@@@@@@@@@@@@@@@@@@@@@@@@@@@@@@@@@@@@@@@@g....                                                   ",
"        ....@@@@@@@@@@@@@@@@@@@@@@@@@@@@@@@@@@@@@@@@@@@@@@@@@@@@@@@@@@@@g....                                                   ",
"        ....@@@@@@@@@@@@@@@@@@@@@@@@@@@@@@@@@@@@@@@@@@@@@@@@@@@@@@@@@@@@g....                                                   ",
"        ....@@@@@@@@@@@@@@@@@@@@@@@@@@@@@@@@@@@@@@@@@@@@@@@@@@@@@@@@@@@@g....                                                   ",
"        ....k@@@@@@@@@@@@@@@@@@@@@@@@@@@@@@@@@@@@@@@@@@@@@@@@@@@@@@@@@@@l....                                                   ",
"        ....mnnnnnnnnnnnnnnnnnnnnnnnnnnnnnnnnnnnnnnnnnnnnnnnnnnnnnnnnnno7....                                                   ",
"         ...................................................................                                                    ",
"         ...................................................................                                                    ",
"          ................................................................                                                      ",
"                                                                                                                                ",
"                                                                                                                                ",
"                                                                                                                                ",
"                                                                                                                                ",
"                                                                                                                                ",
"                                                                                                                                ",
"                                                                                                                                ",
"                                                                                                                                ",
"                                                                                                                                ",
"                                                                                                                                ",
"                                                                                                                                ",
"                                                                                                                                ",
"                                                                                                                                ",
"                                                                                                                                ",
"                                                                                                                                "};
