/* XPM */
static const char * layout_add_xpm[] = {
"16 16 84 1",
" 	c None",
".	c #5F93CE",
"+	c #5F93CD",
"@	c #5F92CD",
"#	c #5F90CC",
"$	c #6192CD",
"%	c #6393CD",
"&	c #6191CB",
"*	c #5F8ECB",
"=	c #6492CA",
"-	c #8BAED8",
";	c #8BACD7",
">	c #FFFFFF",
",	c #89AAD6",
"'	c #9CC4ED",
")	c #9BC4ED",
"!	c #618CC6",
"~	c #5F91CD",
"{	c #C1DAF4",
"]	c #C2DBF4",
"^	c #5884C1",
"/	c #5E90CC",
"(	c #5781BE",
"_	c #5D8ECB",
":	c #557EBC",
"<	c #5C8CCA",
"[	c #547FBC",
"}	c #4C7DBA",
"|	c #4A7CBA",
"1	c #DEE5F0",
"2	c #547CB9",
"3	c #5B8AC8",
"4	c #4076B7",
"5	c #83A6D1",
"6	c #3873B6",
"7	c #EBEFF6",
"8	c #5378B6",
"9	c #5A88C7",
"0	c #336EB4",
"a	c #7EA5D0",
"b	c #2E6CB2",
"c	c #E6ECF5",
"d	c #ACC1A9",
"e	c #749960",
"f	c #668E4F",
"g	c #618A4A",
"h	c #4D7772",
"i	c #5B86C5",
"j	c #2C67AF",
"k	c #75A0CD",
"l	c #2B64AD",
"m	c #A7BDA3",
"n	c #81AB61",
"o	c #B4D495",
"p	c #D0E6BA",
"q	c #8FBB6A",
"r	c #578F2D",
"s	c #376B19",
"t	c #5A86C4",
"u	c #749FCD",
"v	c #B1D390",
"w	c #B1D692",
"x	c #8CBC65",
"y	c #8FBC67",
"z	c #5882C2",
"A	c #4C7B31",
"B	c #B6D49C",
"C	c #B2D295",
"D	c #5580C0",
"E	c #3F7122",
"F	c #8BBA62",
"G	c #87BA60",
"H	c #87B960",
"I	c #557DBE",
"J	c #547CBD",
"K	c #537BBC",
"L	c #5379BA",
"M	c #5177B6",
"N	c #5176B4",
"O	c #5074B1",
"P	c #4F72AD",
"Q	c #436E5F",
"R	c #538C28",
"S	c #8DBA64",
"                ",
"  ...+@#$%&*=-; ",
" .>>>>>>>>>>>>, ",
" .>''')))))))>! ",
" ~>'{{]]]]]])>^ ",
" />))))))))))>( ",
" _>>>>>>>>>>>>: ",
" <>[}|>111111>2 ",
" 3>456>177771>8 ",
" 9>0ab>17cdefgh ",
" i>jkl>17mnopqrs",
" t>jul>17gvw>xys",
" z>jll>11AB>>>Cs",
" D>>>>>>>EFG>Hys",
" IJKLMNOPQRSCSRs",
"          sssss "};
