/* XPM */
static const char * magifier_zoom_out_xpm[] = {
"16 16 102 2",
"  	c None",
". 	c #BFDCFA",
"+ 	c #BBD9F9",
"@ 	c #B8D6F6",
"# 	c #B4D3F4",
"$ 	c #AFCFF1",
"% 	c #ABCBEE",
"& 	c #BEDBFA",
"* 	c #CDE2F9",
"= 	c #DEECFA",
"- 	c #E2EEF9",
"; 	c #E2EDF9",
"> 	c #DAE9F8",
", 	c #BDD5F0",
"' 	c #9FC0E7",
") 	c #BDDBFA",
"! 	c #CCE2F8",
"~ 	c #E3EEFA",
"{ 	c #D6E7F7",
"] 	c #CEE2F6",
"^ 	c #CBE1F6",
"/ 	c #D0E3F6",
"( 	c #DDEAF9",
"_ 	c #B5CFEC",
": 	c #93B6DF",
"< 	c #B9D7F7",
"[ 	c #DEEBF9",
"} 	c #CCE1F6",
"| 	c #CAE0F5",
"1 	c #C8DEF5",
"2 	c #C5DDF5",
"3 	c #D0E2F5",
"4 	c #8CB0DB",
"5 	c #E1EDF9",
"6 	c #C9DFF5",
"7 	c #C7DEF5",
"8 	c #C4DCF4",
"9 	c #F9807E",
"0 	c #FC6F6D",
"a 	c #FA6362",
"b 	c #F75456",
"c 	c #F44548",
"d 	c #F1353A",
"e 	c #EE262E",
"f 	c #AECEF0",
"g 	c #DFECF9",
"h 	c #C8DFF5",
"i 	c #C6DDF5",
"j 	c #C3DCF4",
"k 	c #C1DAF4",
"l 	c #F2A795",
"m 	c #F0A191",
"n 	c #ED9B8D",
"o 	c #EB9387",
"p 	c #E88C82",
"q 	c #EC1A23",
"r 	c #A8C8EC",
"s 	c #D7E7F7",
"t 	c #C2DBF4",
"u 	c #C0DAF4",
"v 	c #BDD8F3",
"w 	c #F37173",
"x 	c #EA111C",
"y 	c #A2C3E8",
"z 	c #B7D0ED",
"A 	c #D9E8F8",
"B 	c #BBD6F3",
"C 	c #D2E4F7",
"D 	c #9DBBDF",
"E 	c #92949D",
"F 	c #96B8E1",
"G 	c #AEC9E8",
"H 	c #CDE1F5",
"I 	c #D3E5F7",
"J 	c #D1E5F7",
"K 	c #C8DDF3",
"L 	c #9CBADF",
"M 	c #91A8C7",
"N 	c #D5AE86",
"O 	c #B57D41",
"P 	c #8AAED9",
"Q 	c #85A9D6",
"R 	c #7FA5D3",
"S 	c #7BA0D0",
"T 	c #769CCD",
"U 	c #8A93A2",
"V 	c #CCA275",
"W 	c #E8CBAB",
"X 	c #CEA476",
"Y 	c #A87030",
"Z 	c #B1793C",
"` 	c #C59764",
" .	c #E4C19D",
"..	c #C79966",
"+.	c #9D651F",
"@.	c #A56D2B",
"#.	c #BC8D55",
"$.	c #DDB589",
"%.	c #975F18",
"&.	c #9A621B",
"*.	c #9D6722",
"=.	c #935B11",
"                                ",
"      . + @ # $ %               ",
"    & * = - ; > , '             ",
"  ) ! ~ { ] ^ / ( _ :           ",
"  < [ { } | 1 2 ^ 3 4           ",
"  # 5 } 6 7 8 9 0 a b c d e     ",
"  f g h i j k 0 l m n o p q     ",
"  r s } t u v w b c d e q x     ",
"  y z A 1 v B t C D E           ",
"    F G H I J K L M N O         ",
"      P Q R S T U V W X Y       ",
"                  Z `  ...+.    ",
"                    @.#.$.%.    ",
"                      &.*.=.    ",
"                                ",
"                                "};
