/* XPM */
static const char * magnifier_zoom_in_xpm[] = {
"16 16 109 2",
"  	c None",
". 	c #BFDCFA",
"+ 	c #BBD9F9",
"@ 	c #B8D6F6",
"# 	c #B4D3F4",
"$ 	c #AFCFF1",
"% 	c #ABCBEE",
"& 	c #BEDBFA",
"* 	c #CDE2F9",
"= 	c #DEECFA",
"- 	c #E2EEF9",
"; 	c #E2EDF9",
"> 	c #DAE9F8",
", 	c #BDD5F0",
"' 	c #9FC0E7",
") 	c #BDDBFA",
"! 	c #CCE2F8",
"~ 	c #E3EEFA",
"{ 	c #D6E7F7",
"] 	c #CEE2F6",
"^ 	c #CBE1F6",
"/ 	c #D0E3F6",
"( 	c #DDEAF9",
"_ 	c #70BD69",
": 	c #65B55B",
"< 	c #5FAD56",
"[ 	c #B9D7F7",
"} 	c #DEEBF9",
"| 	c #CCE1F6",
"1 	c #CAE0F5",
"2 	c #C8DEF5",
"3 	c #C5DDF5",
"4 	c #63B359",
"5 	c #A7CA82",
"6 	c #56A24E",
"7 	c #E1EDF9",
"8 	c #C9DFF5",
"9 	c #C7DEF5",
"0 	c #C4DCF4",
"a 	c #6EBB69",
"b 	c #61B058",
"c 	c #78B564",
"d 	c #9AC378",
"e 	c #69A758",
"f 	c #468E3F",
"g 	c #408639",
"h 	c #AECEF0",
"i 	c #DFECF9",
"j 	c #C8DFF5",
"k 	c #C6DDF5",
"l 	c #C3DCF4",
"m 	c #C1DAF4",
"n 	c #9CC479",
"o 	c #94BF73",
"p 	c #8CBA6C",
"q 	c #84B665",
"r 	c #7BB05E",
"s 	c #377B31",
"t 	c #A8C8EC",
"u 	c #D7E7F7",
"v 	c #C2DBF4",
"w 	c #C0DAF4",
"x 	c #BDD8F3",
"y 	c #62A861",
"z 	c #509A48",
"A 	c #62A051",
"B 	c #7EB260",
"C 	c #539344",
"D 	c #35782F",
"E 	c #2F702A",
"F 	c #A2C3E8",
"G 	c #B7D0ED",
"H 	c #D9E8F8",
"I 	c #BBD6F3",
"J 	c #D2E4F7",
"K 	c #70A954",
"L 	c #33752E",
"M 	c #96B8E1",
"N 	c #AEC9E8",
"O 	c #CDE1F5",
"P 	c #D3E5F7",
"Q 	c #D1E5F7",
"R 	c #C8DDF3",
"S 	c #9CBADF",
"T 	c #3E7F3D",
"U 	c #31732C",
"V 	c #3A6E2A",
"W 	c #8AAED9",
"X 	c #85A9D6",
"Y 	c #7FA5D3",
"Z 	c #7BA0D0",
"` 	c #769CCD",
" .	c #8A93A2",
"..	c #CCA275",
"+.	c #E8CBAB",
"@.	c #CEA476",
"#.	c #A87030",
"$.	c #B1793C",
"%.	c #C59764",
"&.	c #E4C19D",
"*.	c #C79966",
"=.	c #9D651F",
"-.	c #A56D2B",
";.	c #BC8D55",
">.	c #DDB589",
",.	c #975F18",
"'.	c #9A621B",
").	c #9D6722",
"!.	c #935B11",
"                                ",
"      . + @ # $ %               ",
"    & * = - ; > , '             ",
"  ) ! ~ { ] ^ / ( _ : <         ",
"  [ } { | 1 2 3 ^ 4 5 6         ",
"  # 7 | 8 9 0 a b c d e f g     ",
"  h i j k l m < n o p q r s     ",
"  t u | v w x y z A B C D E     ",
"  F G H 2 x I v J g K L         ",
"    M N O P Q R S T U V         ",
"      W X Y Z `  ...+.@.#.      ",
"                  $.%.&.*.=.    ",
"                    -.;.>.,.    ",
"                      '.).!.    ",
"                                ",
"                                "};
