/* XPM */
static const char * pause_xpm[] = {
"16 16 15 1",
" 	c None",
".	c #B0C9E9",
"+	c #B0C9FF",
"@	c #96B2E7",
"#	c #43699D",
"$	c #8FACE2",
"%	c #8AA8DC",
"&	c #84A2D7",
"*	c #7E9DD2",
"=	c #ACC7FC",
"-	c #7898CD",
";	c #A7C1F7",
">	c #7293C7",
",	c #A1BCF2",
"'	c #6C8EC2",
"                ",
"                ",
"                ",
"                ",
"    ...+ ...+   ",
"    .+@# .+@#   ",
"    .+$# .+$#   ",
"    .+%# .+%#   ",
"    .+&# .+&#   ",
"    .+*# .+*#   ",
"    .=-# .=-#   ",
"    .;># .;>#   ",
"    +,'# +,'#   ",
"    +### +###   ",
"                ",
"                "};
