/* XPM */
static const char * Play_xpm[] = {
"16 16 32 1",
" 	c None",
".	c #B0C9E9",
"+	c #97B6DE",
"@	c #90B0DA",
"#	c #90B0DB",
"$	c #8FB0DA",
"%	c #87AAD6",
"&	c #88A9D7",
"*	c #88AAD6",
"=	c #88AAD7",
"-	c #88A9D6",
";	c #7FA3D3",
">	c #80A4D3",
",	c #80A3D3",
"'	c #7FA4D3",
")	c #789DCF",
"!	c #779DCF",
"~	c #789ECF",
"{	c #779ED0",
"]	c #779ECF",
"^	c #789DD0",
"/	c #6F98CC",
"(	c #7098CC",
"_	c #6F97CB",
":	c #7097CC",
"<	c #5180BE",
"[	c #6892C8",
"}	c #6891C9",
"|	c #6892C9",
"1	c #608BC5",
"2	c #5F8BC5",
"3	c #5785C1",
"                ",
"                ",
"                ",
"    .           ",
"    +..         ",
"    @#$..       ",
"    %&*=-..     ",
"    ;;;>>,'..   ",
"    )!~{{!]^^.  ",
"    /(_:/_:<<<  ",
"    [[[}|<<<    ",
"    121<<<      ",
"    3<<<        ",
"    <<          ",
"                ",
"                "};
