/* XPM */
static const char * stop_xpm[] = {
"16 16 48 1",
" 	c None",
".	c #B0C9FF",
"+	c #AEC8FD",
"@	c #A8C2F8",
"#	c #A2BDF2",
"$	c #9CB7ED",
"%	c #96B2E7",
"&	c #90ACE2",
"*	c #43699D",
"=	c #AFC8FE",
"-	c #90ADE2",
";	c #89A8DC",
">	c #AFC8FD",
",	c #A3BDF2",
"'	c #9CB8ED",
")	c #97B3E8",
"!	c #8AA8DC",
"~	c #84A2D8",
"{	c #A8C3F9",
"]	c #A3BEF3",
"^	c #9DB8ED",
"/	c #97B2E7",
"(	c #90ADE3",
"_	c #8AA8DD",
":	c #84A2D7",
"<	c #7E9DD2",
"[	c #A3BDF3",
"}	c #9DB7EE",
"|	c #96B2E8",
"1	c #90AEE3",
"2	c #7F9DD2",
"3	c #7897CD",
"4	c #96B3E8",
"5	c #8AA8DE",
"6	c #84A3D7",
"7	c #7293C7",
"8	c #91ADE2",
"9	c #8BA8DD",
"0	c #85A2D8",
"a	c #7998CD",
"b	c #7292C8",
"c	c #6C8DC2",
"d	c #91ADE3",
"e	c #85A3D8",
"f	c #7F9DD3",
"g	c #7898CD",
"h	c #6C8EC2",
"i	c #6688BD",
"                ",
"                ",
"                ",
"                ",
"    ..........  ",
"    ...+@#$%&*  ",
"    ..=@#$%-;*  ",
"    .>@,')-!~*  ",
"    .{]^/(_:<*  ",
"    .[}|1_:23*  ",
"    .'4-56<37*  ",
"    .)890<abc*  ",
"    .d9efgbhi*  ",
"    .*********  ",
"                ",
"                "};
